<svg width="716" height="256" viewBox="0 0 716 256" fill="none" xmlns="http://www.w3.org/2000/svg">
<path d="M117.088 169.29L138.912 139.502L160.442 169.29L204.092 109.714L179.023 91.1336L160.442 116.498L138.618 86.4147L117.088 116.498L95.2627 86.7097L51.9078 146.286L76.977 164.866L95.2627 139.502L117.088 169.29ZM128 256C110.108 256 93.3958 252.65 77.8647 245.949C62.3356 239.246 48.8268 230.15 37.3382 218.662C25.8497 207.173 16.754 193.664 10.0512 178.135C3.35041 162.604 0 145.892 0 128C0 110.108 3.35041 93.3958 10.0512 77.8647C16.754 62.3356 25.8497 48.8268 37.3382 37.3382C48.8268 25.8497 62.3356 16.754 77.8647 10.0512C93.3958 3.35042 110.108 0 128 0C145.892 0 162.604 3.35042 178.135 10.0512C193.664 16.754 207.173 25.8497 218.662 37.3382C230.15 48.8268 239.246 62.3356 245.949 77.8647C252.65 93.3958 256 110.108 256 128C256 145.892 252.65 162.604 245.949 178.135C239.246 193.664 230.15 207.173 218.662 218.662C207.173 230.15 193.664 239.246 178.135 245.949C162.604 252.65 145.892 256 128 256Z" fill="#FAFAFA" style="fill:#FAFAFA;fill:color(display-p3 0.9803 0.9803 0.9803);fill-opacity:1;"></path>
<path d="M160.442 116.498L179.023 91.1336L204.092 109.714L160.442 169.29L138.912 139.502L117.088 169.29L95.2627 139.502L76.977 164.866L51.9078 146.286L95.2627 86.7097L117.088 116.498L138.618 86.4147L160.442 116.498Z" fill="#82BD39" style="fill:#82BD39;fill:color(display-p3 0.5098 0.7412 0.2235);fill-opacity:1;"></path>
<path d="M306.88 93.82V55.42H327.04V93.82C327.04 96.892 327.872 99.356 329.536 101.212C331.2 103.004 333.408 103.9 336.16 103.9C338.912 103.9 341.12 103.004 342.784 101.212C344.448 99.356 345.28 96.892 345.28 93.82V55.42H365.44V93.82C365.44 102.908 362.784 110.14 357.472 115.516C352.16 120.892 345.056 123.58 336.16 123.58C327.264 123.58 320.16 120.892 314.848 115.516C309.536 110.14 306.88 102.908 306.88 93.82Z" fill="#FAFAFA" style="fill:#FAFAFA;fill:color(display-p3 0.9803 0.9803 0.9803);fill-opacity:1;"></path>
<path d="M373.596 122.62V55.42H393.756V102.94H421.596V122.62H373.596Z" fill="#FAFAFA" style="fill:#FAFAFA;fill:color(display-p3 0.9803 0.9803 0.9803);fill-opacity:1;"></path>
<path d="M424.038 122.62V104.38L450.438 74.62H424.518V55.42H477.797V73.66L451.398 103.42H478.278V122.62H424.038Z" fill="#FAFAFA" style="fill:#FAFAFA;fill:color(display-p3 0.9803 0.9803 0.9803);fill-opacity:1;"></path>
<path d="M484.975 122.62V55.42H505.135V122.62H484.975Z" fill="#FAFAFA" style="fill:#FAFAFA;fill:color(display-p3 0.9803 0.9803 0.9803);fill-opacity:1;"></path>
<path d="M513.805 122.62V55.42H533.965V122.62H513.805Z" fill="#FAFAFA" style="fill:#FAFAFA;fill:color(display-p3 0.9803 0.9803 0.9803);fill-opacity:1;"></path>
<path d="M542.635 122.62V55.42H577.675C584.075 55.42 589.099 57.18 592.747 60.7C596.459 64.156 598.315 68.796 598.315 74.62C598.315 78.588 597.099 82.108 594.667 85.18C593.643 86.524 592.459 87.644 591.115 88.54V89.02C592.779 90.172 594.123 91.388 595.147 92.668C597.899 95.932 599.275 99.516 599.275 103.42C599.275 109.244 597.419 113.916 593.707 117.436C590.059 120.892 585.035 122.62 578.635 122.62H542.635ZM562.795 105.82H574.795C576.011 105.82 577.035 105.404 577.867 104.572C578.699 103.74 579.115 102.716 579.115 101.5C579.115 100.284 578.699 99.26 577.867 98.428C577.035 97.596 576.011 97.18 574.795 97.18H562.795V105.82ZM562.795 80.86H573.739C575.019 80.86 576.075 80.444 576.907 79.612C577.739 78.78 578.155 77.756 578.155 76.54C578.155 75.324 577.739 74.3 576.907 73.468C576.075 72.636 575.019 72.22 573.739 72.22H562.795V80.86Z" fill="#FAFAFA" style="fill:#FAFAFA;fill:color(display-p3 0.9803 0.9803 0.9803);fill-opacity:1;"></path>
<path d="M597.381 122.62L618.981 55.42H646.821L668.421 122.62H646.821L643.941 112.54H621.861L618.981 122.62H597.381ZM626.661 95.26H639.141L633.861 77.02H631.941L626.661 95.26Z" fill="#FAFAFA" style="fill:#FAFAFA;fill:color(display-p3 0.9803 0.9803 0.9803);fill-opacity:1;"></path>
<path d="M678.516 122.62V75.1H661.716V55.42H715.476V75.1H698.676V122.62H678.516Z" fill="#FAFAFA" style="fill:#FAFAFA;fill:color(display-p3 0.9803 0.9803 0.9803);fill-opacity:1;"></path>
<path d="M320.8 199.62V152.1H304V132.42H357.76V152.1H340.96V199.62H320.8Z" fill="#FAFAFA" style="fill:#FAFAFA;fill:color(display-p3 0.9803 0.9803 0.9803);fill-opacity:1;"></path>
<path d="M363.003 199.62V132.42H411.003V150.66H383.163V157.38H409.083V174.66H383.163V181.38H411.003V199.62H363.003Z" fill="#FAFAFA" style="fill:#FAFAFA;fill:color(display-p3 0.9803 0.9803 0.9803);fill-opacity:1;"></path>
<path d="M460.416 171.78H480.576C479.424 180.292 475.968 187.236 470.208 192.612C464.448 197.924 457.344 200.58 448.896 200.58C439.424 200.58 431.52 197.348 425.184 190.884C418.912 184.356 415.776 176.068 415.776 166.02C415.776 155.972 418.912 147.716 425.184 141.252C431.52 134.724 439.424 131.46 448.896 131.46C457.344 131.46 464.448 134.116 470.208 139.428C475.968 144.676 479.424 151.46 480.576 159.78H460.416C459.648 157.22 458.272 155.14 456.288 153.54C454.368 151.94 451.904 151.14 448.896 151.14C445.184 151.14 442.08 152.516 439.584 155.268C437.152 157.956 435.936 161.54 435.936 166.02C435.936 170.5 437.152 174.116 439.584 176.868C442.08 179.556 445.184 180.9 448.896 180.9C451.904 180.9 454.368 180.1 456.288 178.5C458.272 176.836 459.648 174.596 460.416 171.78Z" fill="#FAFAFA" style="fill:#FAFAFA;fill:color(display-p3 0.9803 0.9803 0.9803);fill-opacity:1;"></path>
<path d="M486.85 199.62V132.42H507.01V155.46H525.25V132.42H545.41V199.62H525.25V176.1H507.01V199.62H486.85Z" fill="#FAFAFA" style="fill:#FAFAFA;fill:color(display-p3 0.9803 0.9803 0.9803);fill-opacity:1;"></path>
</svg>