<svg xmlns="http://www.w3.org/2000/svg" width="715.476" height="256" viewBox="0 0 715.476 256" fill="none">
  <path d="M 117.088 169.29 L 138.912 139.502 L 160.442 169.29 L 204.092 109.714 L 179.023 91.134 L 160.442 116.498 L 138.618 86.415 L 117.088 116.498 L 95.263 86.71 L 51.908 146.286 L 76.977 164.866 L 95.263 139.502 L 117.088 169.29 Z M 128 256 C 110.108 256 93.396 252.65 77.865 245.949 C 62.336 239.246 48.827 230.15 37.338 218.662 C 25.85 207.173 16.754 193.664 10.051 178.135 C 3.35 162.604 0 145.892 0 128 C 0 110.108 3.35 93.396 10.051 77.865 C 16.754 62.336 25.85 48.827 37.338 37.338 C 48.827 25.85 62.336 16.754 77.865 10.051 C 93.396 3.35 110.108 0 128 0 C 145.892 0 162.604 3.35 178.135 10.051 C 193.664 16.754 207.173 25.85 218.662 37.338 C 230.15 48.827 239.246 62.336 245.949 77.865 C 252.65 93.396 256 110.108 256 128 C 256 145.892 252.65 162.604 245.949 178.135 C 239.246 193.664 230.15 207.173 218.662 218.662 C 207.173 230.15 193.664 239.246 178.135 245.949 C 162.604 252.65 145.892 256 128 256 Z" fill="currentColor" fill-rule="nonzero"/>
  <path d="M 160.442 116.498 L 179.023 91.134 L 204.092 109.714 L 160.442 169.29 L 138.912 139.502 L 117.088 169.29 L 95.263 139.502 L 76.977 164.866 L 51.908 146.286 L 95.263 86.71 L 117.088 116.498 L 138.618 86.415 L 160.442 116.498 Z" fill="currentColor" fill-rule="nonzero"/>
  <path d="M 306.88 93.82 L 306.88 55.42 L 327.04 55.42 L 327.04 93.82 C 327.04 96.892 327.872 99.356 329.536 101.212 C 331.2 103.004 333.408 103.9 336.16 103.9 C 338.912 103.9 341.12 103.004 342.784 101.212 C 344.448 99.356 345.28 96.892 345.28 93.82 L 345.28 55.42 L 365.44 55.42 L 365.44 93.82 C 365.44 102.908 362.784 110.14 357.472 115.516 C 352.16 120.892 345.056 123.58 336.16 123.58 C 327.264 123.58 320.16 120.892 314.848 115.516 C 309.536 110.14 306.88 102.908 306.88 93.82 Z" fill="currentColor" fill-rule="nonzero"/>
  <path d="M 373.596 122.62 L 373.596 55.42 L 393.756 55.42 L 393.756 102.94 L 421.596 102.94 L 421.596 122.62 L 373.596 122.62 Z" fill="currentColor" fill-rule="nonzero"/>
  <path d="M 424.038 122.62 L 424.038 104.38 L 450.438 74.62 L 424.518 74.62 L 424.518 55.42 L 477.797 55.42 L 477.797 73.66 L 451.398 103.42 L 478.278 103.42 L 478.278 122.62 L 424.038 122.62 Z" fill="currentColor" fill-rule="nonzero"/>
  <path d="M 484.975 122.62 L 484.975 55.42 L 505.135 55.42 L 505.135 122.62 L 484.975 122.62 Z" fill="currentColor" fill-rule="nonzero"/>
  <path d="M 513.805 122.62 L 513.805 55.42 L 533.965 55.42 L 533.965 122.62 L 513.805 122.62 Z" fill="currentColor" fill-rule="nonzero"/>
  <path d="M 542.635 122.62 L 542.635 55.42 L 577.675 55.42 C 584.075 55.42 589.099 57.18 592.747 60.7 C 596.459 64.156 598.315 68.796 598.315 74.62 C 598.315 78.588 597.099 82.108 594.667 85.18 C 593.643 86.524 592.459 87.644 591.115 88.54 L 591.115 89.02 C 592.779 90.172 594.123 91.388 595.147 92.668 C 597.899 95.932 599.275 99.516 599.275 103.42 C 599.275 109.244 597.419 113.916 593.707 117.436 C 590.059 120.892 585.035 122.62 578.635 122.62 L 542.635 122.62 Z M 562.795 105.82 L 574.795 105.82 C 576.011 105.82 577.035 105.404 577.867 104.572 C 578.699 103.74 579.115 102.716 579.115 101.5 C 579.115 100.284 578.699 99.26 577.867 98.428 C 577.035 97.596 576.011 97.18 574.795 97.18 L 562.795 97.18 L 562.795 105.82 Z M 562.795 80.86 L 573.739 80.86 C 575.019 80.86 576.075 80.444 576.907 79.612 C 577.739 78.78 578.155 77.756 578.155 76.54 C 578.155 75.324 577.739 74.3 576.907 73.468 C 576.075 72.636 575.019 72.22 573.739 72.22 L 562.795 72.22 L 562.795 80.86 Z" fill="currentColor" fill-rule="nonzero"/>
  <path d="M 597.381 122.62 L 618.981 55.42 L 646.821 55.42 L 668.421 122.62 L 646.821 122.62 L 643.941 112.54 L 621.861 112.54 L 618.981 122.62 L 597.381 122.62 Z M 626.661 95.26 L 639.141 95.26 L 633.861 77.02 L 631.941 77.02 L 626.661 95.26 Z" fill="currentColor" fill-rule="nonzero"/>
  <path d="M 678.516 122.62 L 678.516 75.1 L 661.716 75.1 L 661.716 55.42 L 715.476 55.42 L 715.476 75.1 L 698.676 75.1 L 698.676 122.62 L 678.516 122.62 Z" fill="currentColor" fill-rule="nonzero"/>
  <path d="M 320.8 199.62 L 320.8 152.1 L 304 152.1 L 304 132.42 L 357.76 132.42 L 357.76 152.1 L 340.96 152.1 L 340.96 199.62 L 320.8 199.62 Z" fill="currentColor" fill-rule="nonzero"/>
  <path d="M 363.003 199.62 L 363.003 132.42 L 411.003 132.42 L 411.003 150.66 L 383.163 150.66 L 383.163 157.38 L 409.083 157.38 L 409.083 174.66 L 383.163 174.66 L 383.163 181.38 L 411.003 181.38 L 411.003 199.62 L 363.003 199.62 Z" fill="currentColor" fill-rule="nonzero"/>
  <path d="M 460.416 171.78 L 480.576 171.78 C 479.424 180.292 475.968 187.236 470.208 192.612 C 464.448 197.924 457.344 200.58 448.896 200.58 C 439.424 200.58 431.52 197.348 425.184 190.884 C 418.912 184.356 415.776 176.068 415.776 166.02 C 415.776 155.972 418.912 147.716 425.184 141.252 C 431.52 134.724 439.424 131.46 448.896 131.46 C 457.344 131.46 464.448 134.116 470.208 139.428 C 475.968 144.676 479.424 151.46 480.576 159.78 L 460.416 159.78 C 459.648 157.22 458.272 155.14 456.288 153.54 C 454.368 151.94 451.904 151.14 448.896 151.14 C 445.184 151.14 442.08 152.516 439.584 155.268 C 437.152 157.956 435.936 161.54 435.936 166.02 C 435.936 170.5 437.152 174.116 439.584 176.868 C 442.08 179.556 445.184 180.9 448.896 180.9 C 451.904 180.9 454.368 180.1 456.288 178.5 C 458.272 176.836 459.648 174.596 460.416 171.78 Z" fill="currentColor" fill-rule="nonzero"/>
  <path d="M 486.85 199.62 L 486.85 132.42 L 507.01 132.42 L 507.01 155.46 L 525.25 155.46 L 525.25 132.42 L 545.41 132.42 L 545.41 199.62 L 525.25 199.62 L 525.25 176.1 L 507.01 176.1 L 507.01 199.62 L 486.85 199.62 Z" fill="currentColor" fill-rule="nonzero"/>
</svg>
